<svg xmlns="http://www.w3.org/2000/svg" viewBox="0 0 48 48" fill="#222">
  <path d="M0, 8V31a9, 9, 0, 0, 0, 9, 9H39a9, 9, 0, 0, 0, 9-9V8H0ZM46, 31a7, 7, 0, 0, 1-7, 7H9a7, 7, 0, 0, 1-7-7V10H46V31Z"/>
  <rect x="6" y="28" width="4" height="4"/>
  <rect x="38" y="28" width="4" height="4"/>
  <rect x="6" y="14" width="4" height="4"/>
  <rect x="14" y="14" width="4" height="4"/>
  <rect x="22" y="14" width="4" height="4"/>
  <rect x="10" y="21" width="4" height="4"/>
  <rect x="18" y="21" width="4" height="4"/>
  <rect x="26" y="21" width="4" height="4"/>
  <rect x="34" y="21" width="4" height="4"/>
  <rect x="38" y="14" width="4" height="4"/>
  <rect x="30" y="14" width="4" height="4"/>
  <rect x="14" y="28" width="20" height="4"/>
</svg>
