<svg xmlns="http://www.w3.org/2000/svg" viewBox="0 0 48 48" fill="#222">
  <path d="M45, 19a3, 3, 0, 1, 0-2.82-4H28.9a5, 5, 0, 0, 0-9.8, 0H5.82a3, 3, 0, 1, 0, 0, 2h9.1q-0.77.46-1.5, 1a18.48, 18.48, 0, 0, 0-6.55, 9, 5, 5, 0, 1, 0, 2, .35A16.4, 16.4, 0, 0, 1, 19.18, 17.24a5, 5, 0, 0, 0, 9.65, 0A16.36, 16.36, 0, 0, 1, 39.11, 27.38a5, 5, 0, 1, 0, 2-.37, 18.22, 18.22, 0, 0, 0-8-10h9.07A3, 3, 0, 0, 0, 45, 19ZM10, 32a3, 3, 0, 1, 1-3-3A3, 3, 0, 0, 1, 10, 32ZM24, 19a3, 3, 0, 1, 1, 3-3A3, 3, 0, 0, 1, 24, 19ZM44, 32a3, 3, 0, 1, 1-3-3A3, 3, 0, 0, 1, 44, 32Z"/>
</svg>
