<svg viewBox="0 0 245 240" xmlns="http://www.w3.org/2000/svg">
  <circle cx="122.5" cy="120" r="87.5" fill="#222"/>
  <path d="M180.833, 120c0, -7.061 -5.731, -12.792 -12.792, -12.792c-3.48, 0 -6.55, 1.33 -8.801, 3.581c-8.699, -6.242 -20.775, -10.336 -34.079, -10.847l5.833, -27.325l18.933, 3.991c0.205, 4.81 4.196, 8.699 9.108, 8.699c5.015, 0 9.108, -4.094 9.108, -9.108c0, -5.015 -4.093, -9.108 -9.108, -9.108c-3.582, 0 -6.652, 2.046 -8.085, 5.117l-21.184, -4.503c-0.614, -0.103 -1.228, 0 -1.74, 0.307c-0.511, 0.307 -0.818, 0.818 -1.023, 1.432l-6.447, 30.498c-13.612, 0.409 -25.79, 4.4 -34.591, 10.847c-2.252, -2.149 -5.424, -3.581 -8.801, -3.581c-7.062, 0 -12.793, 5.731 -12.793, 12.792c0, 5.219 3.071, 9.62 7.573, 11.667c-0.204, 1.228 -0.307, 2.558 -0.307, 3.889c0, 19.649 22.822, 35.511 51.068, 35.511c28.245, 0 51.067, -15.862 51.067, -35.511c0, -1.331 -0.102, -2.559 -0.307, -3.787c4.196, -2.047 7.368, -6.55 7.368, -11.769Zm-87.5, 9.108c0, -5.014 4.094, -9.108 9.109, -9.108c5.014, 0 9.108, 4.094 9.108, 9.108c0, 5.015 -4.094, 9.108 -9.108, 9.108c-5.015, 0 -9.109, -4.093 -9.109, -9.108Zm50.863, 24.05c-6.243, 6.243 -18.114, 6.652 -21.594, 6.652c-3.479, 0 -15.453, -0.512 -21.593, -6.652c-0.921, -0.921 -0.921, -2.456 0, -3.377c0.921, -0.921 2.456, -0.921 3.377, 0c3.889, 3.889 12.281, 5.321 18.319, 5.321c6.038, 0 14.327, -1.432 18.318, -5.321c0.921, -0.921 2.457, -0.921 3.378, 0c0.716, 1.023 0.716, 2.456 -0.205, 3.377Zm-1.638, -14.942c-5.014, 0 -9.108, -4.093 -9.108, -9.108c0, -5.014 4.094, -9.108 9.108, -9.108c5.015, 0 9.109, 4.094 9.109, 9.108c0, 5.015 -4.094, 9.108 -9.109, 9.108Z" fill="#fcfcfc"/>
</svg>
