<svg viewBox="0 0 245 240" xmlns="http://www.w3.org/2000/svg" fill="#222">
  <path d="M130.394, 104.948l-23.347, 7.82l7.554, 22.552l23.347, -7.82l-7.554, -22.552Z"/>
  <path d="M202.665, 95.937c-18.048, -60.159 -44.07, -74.149 -104.228, -56.102c-60.159, 18.048 -74.149, 44.07 -56.102, 104.228c18.048, 60.159 44.07, 74.149 104.228, 56.102c60.159, -18.048 74.149, -44.07 56.102, -104.228Zm-30.359, 39.033l-11.333, 3.777l3.918, 11.752c1.539, 4.757 -0.98, 9.933 -5.736, 11.472c-0.98, 0.28 -2.099, 0.56 -3.078, 0.42c-3.638, -0.14 -7.135, -2.519 -8.394, -6.156l-3.918, -11.752l-23.364, 7.835l3.918, 11.752c1.539, 4.756 -0.98, 9.933 -5.736, 11.472c-0.98, 0.279 -2.099, 0.559 -3.078, 0.419c-3.638, -0.14 -7.135, -2.518 -8.394, -6.155l-3.918, -11.752l-11.332, 3.777c-0.979, 0.28 -2.098, 0.56 -3.078, 0.42c-3.637, -0.14 -7.135, -2.518 -8.394, -6.156c-1.539, -4.757 0.979, -9.933 5.736, -11.472l11.332, -3.777l-7.554, -22.525l-11.333, 3.778c-0.979, 0.279 -2.098, 0.559 -3.078, 0.419c-3.637, -0.14 -7.135, -2.518 -8.394, -6.155c-1.539, -4.757 0.98, -9.934 5.736, -11.473l11.332, -3.777l-3.917, -11.752c-1.539, -4.757 0.98, -9.933 5.736, -11.472c4.757, -1.539 9.933, 0.979 11.472, 5.736l3.918, 11.752l23.363, -7.835l-3.917, -11.751c-1.539, -4.757 0.979, -9.934 5.736, -11.473c4.757, -1.538 9.933, 0.98 11.472, 5.736l3.918, 11.752l11.332, -3.777c4.756, -1.539 9.933, 0.979 11.472, 5.736c1.539, 4.757 -0.98, 9.933 -5.736, 11.472l-11.332, 3.777l7.554, 22.525l11.333, -3.777c4.756, -1.539 9.933, 0.979 11.472, 5.736c1.539, 4.756 -0.98, 9.933 -5.736, 11.472Z"/>
</svg>
